<svg width="260" height="394" viewBox="0 0 260 394" fill="none" xmlns="http://www.w3.org/2000/svg" xmlns:xlink="http://www.w3.org/1999/xlink">
<mask id="mask_0_1824_60" style="mask-type:alpha" maskUnits="userSpaceOnUse" x="0" y="0" width="130" height="197">
<rect  x="0" y="0" width="260" height="394" rx="12" fill="#C4C4C4"/>
</mask>
<g mask="url(#mask_0_1824_60)">
<rect  x="16" y="18" width="234" height="362" fill="url(#pattern_0_1824_61)"/>
<rect  x="16" y="18" width="234" height="362" fill="url(#pf_1_1824_61)"/>
<rect  x="250" y="12" width="8" height="378" transform="rotate(360 250 12)" fill="url(#pf_0_1824_62)"/>
<rect  x="250" y="32" width="18" height="240" transform="rotate(180 250 32)" fill="url(#pf_0_1824_63)"/>
<rect  x="16" y="386" width="18" height="354" transform="rotate(0 16 386)" fill="url(#pf_0_1824_64)"/>
<rect  x="10" y="362" width="18" height="242" transform="rotate(-180 10 362)" fill="url(#pf_0_1824_65)"/>
<g filter="url(#filter1824_66)">
<rect  x="8" y="0" width="2" height="394" fill="#FFFFFF"/>
</g>
</g>
<defs>
<linearGradient id="pf_1_1824_61" x1="133" y1="18" x2="133" y2="380" gradientUnits="userSpaceOnUse">
<stop stop-color="#FFFFFF" stop-opacity="0"/>
<stop offset="1" stop-color="#FFFFFF" stop-opacity="0"/>
</linearGradient>
<linearGradient id="pf_0_1824_62" x1="250" y1="214" x2="254.8" y2="214" gradientUnits="userSpaceOnUse">
<stop stop-color="#F67951"/>
<stop offset="1" stop-color="#F67951" stop-opacity="0"/>
</linearGradient>
<linearGradient id="pf_0_1824_63" x1="361" y1="49.254" x2="371.8" y2="49.254" gradientUnits="userSpaceOnUse">
<stop stop-color="#F67951"/>
<stop offset="1" stop-color="#F67951" stop-opacity="0"/>
</linearGradient>
<linearGradient id="pf_0_1824_64" x1="16" y1="575.175" x2="26.8" y2="575.175" gradientUnits="userSpaceOnUse">
<stop stop-color="#F67951"/>
<stop offset="1" stop-color="#F67951" stop-opacity="0"/>
</linearGradient>
<linearGradient id="pf_0_1824_65" x1="122" y1="379.323" x2="132.8" y2="379.323" gradientUnits="userSpaceOnUse">
<stop stop-color="#F67951"/>
<stop offset="1" stop-color="#F67951" stop-opacity="0"/>
</linearGradient>
<filter id="filter1824_66" x="4" y="-4" width="9" height="205" filterUnits="userSpaceOnUse" color-interpolation-filters="sRGB">
<feFlood flood-opacity="0" result="BackgroundImageFix"/>
<feBlend mode="normal" in="SourceGraphic" in2="BackgroundImageFix" result="shape"/>
<feGaussianBlur stdDeviation="2" result="0foregroundblur"/>
</filter>
</defs>
</svg>
