<svg width="80" height="80" viewBox="0 0 80 80" fill="none" xmlns="http://www.w3.org/2000/svg" xmlns:xlink="http://www.w3.org/1999/xlink">
<path d="M0,58.995C0,66.174 5.82,71.994 12.999,71.994L32.658,71.994L34.081,66.301C34.729,63.71 36.069,61.343 37.958,59.454L61.565,35.846C64.421,32.991 68.263,31.724 71.994,32.046L71.994,12.999C71.994,5.82 66.174,0 58.995,0L31.997,0L31.997,18.998C31.997,26.177 26.177,31.997 18.998,31.997L0,31.997L0,58.995ZM25.998,1.76L1.76,25.998L18.998,25.998C22.864,25.998 25.998,22.864 25.998,18.998L25.998,1.76ZM64.394,38.675L40.786,62.282C39.41,63.658 38.433,65.383 37.961,67.272L36.13,74.594C35.335,77.778 38.219,80.662 41.403,79.866L48.725,78.036C50.614,77.564 52.338,76.587 53.715,75.211L77.322,51.603C80.893,48.033 80.893,42.245 77.322,38.675C73.752,35.104 67.964,35.104 64.394,38.675Z" fill="#FFFFFF"/>
</svg>
