<svg width="12" height="18" viewBox="0 0 12 18" fill="none" xmlns="http://www.w3.org/2000/svg" xmlns:xlink="http://www.w3.org/1999/xlink">
<path d="M3.061,-0.061C2.475,-0.646 1.525,-0.646 0.939,-0.061C0.354,0.525 0.354,1.475 0.939,2.061L3.061,-0.061ZM9,8L10.061,9.061C10.646,8.475 10.646,7.525 10.061,6.939L9,8ZM0.939,13.939C0.354,14.525 0.354,15.475 0.939,16.061C1.525,16.646 2.475,16.646 3.061,16.061L0.939,13.939ZM0.939,2.061L7.939,9.061L10.061,6.939L3.061,-0.061L0.939,2.061ZM7.939,6.939L0.939,13.939L3.061,16.061L10.061,9.061L7.939,6.939Z" fill="#F6C12D"/>
</svg>
