<svg width="34" height="30" viewBox="0 0 34 30" fill="none" xmlns="http://www.w3.org/2000/svg" xmlns:xlink="http://www.w3.org/1999/xlink">
<path d="M5.656,12.001L32,12.001C33.105,12.001 34,12.897 34,14.001L34,14.001C34,15.106 33.105,16.001 32,16.001L5.656,16.001L14.97,25.315C15.751,26.096 15.751,27.362 14.97,28.143L14.97,28.143C14.189,28.924 12.923,28.924 12.142,28.143L-0.272,15.73C-1.226,14.775 -1.226,13.227 -0.272,12.273L12.142,-0.141C12.923,-0.922 14.189,-0.922 14.97,-0.141L14.97,-0.141C15.751,0.64 15.751,1.906 14.97,2.687L5.656,12.001Z" fill="#06070D"/>
</svg>
